HIERARCHY
ROOT Hips
{
	OFFSET 0.00000 0.00000 0.00000
	CHANNELS 6 Xposition Yposition Zposition Zrotation Yrotation Xrotation 
	JOINT LHipJoint
	{
		OFFSET 0 0 0
		CHANNELS 3 Zrotation Yrotation Xrotation
		JOINT LeftHip
		{
			OFFSET 1.53794 -1.55850 0.93568
			CHANNELS 3 Zrotation Yrotation Xrotation
			JOINT LeftKnee
			{
				OFFSET 2.28545 -6.27922 0.00000
				CHANNELS 3 Zrotation Yrotation Xrotation
				JOINT LeftAnkle
				{
					OFFSET 2.37329 -6.52057 0.00000
					CHANNELS 3 Zrotation Yrotation Xrotation
					JOINT LeftToe
					{
						OFFSET 0.14846 -0.40788 2.09160
						CHANNELS 3 Zrotation Yrotation Xrotation
						End Site
						{
							OFFSET 0.00000 -0.00000 1.07536
						}
					}
				}
			}
		}
	}
	JOINT RHipJoint
	{
		OFFSET 0 0 0
		CHANNELS 3 Zrotation Yrotation Xrotation
		JOINT RightHip
		{
			OFFSET -1.78290 -1.55850 0.93568
			CHANNELS 3 Zrotation Yrotation Xrotation
			JOINT RightKnee
			{
				OFFSET -2.24144 -6.15831 0.00000
				CHANNELS 3 Zrotation Yrotation Xrotation
				JOINT RightAnkle
				{
					OFFSET -2.35091 -6.45907 0.00000
					CHANNELS 3 Zrotation Yrotation Xrotation
					JOINT RightToe
					{
						OFFSET -0.14428 -0.39641 2.07944
						CHANNELS 3 Zrotation Yrotation Xrotation
						End Site
						{
							OFFSET -0.00000 -0.00000 1.06864
						}
					}
				}
			}
		}
	}
	JOINT lowerback
	{
		OFFSET 0 0 0
		CHANNELS 3 Zrotation Yrotation Xrotation
		JOINT Chest
		{
			OFFSET -0.08841 2.11430 -0.15818
			CHANNELS 3 Zrotation Yrotation Xrotation
			JOINT Chest2
			{
				OFFSET -0.00033 2.12605 -0.08097
				CHANNELS 3 Zrotation Yrotation Xrotation
				JOINT lowerneck
				{
					OFFSET 0 0 0
					CHANNELS 3 Zrotation Yrotation Xrotation
					JOINT Neck
					{
						OFFSET 0.04431 1.59447 0.43193
						CHANNELS 3 Zrotation Yrotation Xrotation
						JOINT Head
						{
							OFFSET 0.00455 1.62017 -0.58852
							CHANNELS 3 Zrotation Yrotation Xrotation
							End Site
							{
								OFFSET -0.00920 1.72955 -0.25850
							}
						}
					}
				}
				JOINT LeftCollar
				{
					OFFSET 0 0 0
					CHANNELS 3 Zrotation Yrotation Xrotation
					JOINT LeftShoulder
					{
						OFFSET 2.86490 1.49927 -0.33774
CHANNELS 3 Zrotation Xrotation Yrotation
						JOINT LeftElbow
						{
OFFSET 0 -4.874080 0.000000
CHANNELS 3 Zrotation Xrotation Yrotation
							JOINT LeftWrist
							{
OFFSET 0 -2.767290 0.000000
CHANNELS 3 Zrotation Xrotation Yrotation
								JOINT lhand
								{
									OFFSET 0 0 0
CHANNELS 3 Zrotation Xrotation Yrotation
									JOINT LFingers
									{
OFFSET 0 -0.989220 0.000000
CHANNELS 3 Zrotation Xrotation Yrotation
										End Site
										{
OFFSET 0 -0.797530 0.000000
										}
									}
								}
								JOINT LThumb
								{
OFFSET 0 0.000000 0.000000
CHANNELS 3 Zrotation Xrotation Yrotation
									End Site
									{
OFFSET 0 -0.809720 0.809720
									}
								}
							}
						}
					}
				}
				JOINT RightCollar
				{
					OFFSET 0 0 0
					CHANNELS 3 Zrotation Yrotation Xrotation
					JOINT RightShoulder
					{
						OFFSET -2.94414 1.45463 -0.25291
CHANNELS 3 Zrotation Xrotation Yrotation
						JOINT RightElbow
						{
OFFSET 0 -4.714040 0.000000
CHANNELS 3 Zrotation Xrotation Yrotation
							JOINT RightWrist
							{
OFFSET 0 -2.834680 0.000000
CHANNELS 3 Zrotation Xrotation Yrotation
								JOINT rhand
								{
									OFFSET 0 0 0
CHANNELS 3 Zrotation Xrotation Yrotation
									JOINT RFingers
									{
OFFSET 0 -0.868200 0.000000
CHANNELS 3 Zrotation Xrotation Yrotation
										End Site
										{
OFFSET 0 -0.699960 0.000000
										}
									}
								}
								JOINT RThumb
								{
OFFSET 0 0.000000 0.000000
CHANNELS 3 Zrotation Xrotation Yrotation
									End Site
									{
OFFSET 0 -0.710650 0.710650
									}
								}
							}
						}
					}
				}
			}
		}
	}
}
MOTION
Frames: 5
Frame Time: 0.008333333333333333
15.668500 16.686300 24.368400 -177.016000 9.052900 -168.833000 0.000000 0.000000 0.000000 -8.860300 -19.488700 -35.276300 1.884900 8.622100 24.620200 0.535700 15.670600 16.005300 0.264700 -3.309800 -9.142400 0.000000 0.000000 0.000000 23.393300 0.837900 9.561000 -4.033100 -12.204300 36.458700 -0.569600 -26.739400 22.239900 -0.760400 5.568900 -15.538600 1.237400 7.620100 -4.435300 -5.431000 10.436500 -2.325200 -5.627200 5.333400 1.288700 2.845100 -2.338400 -31.920100 4.373800 -13.427500 43.609700 -2.723900 -4.574900 26.292900 0.000000 -0.000000 0.000000 36.060900 33.408000 -67.696000 109.586700 -58.499600 76.877100 15.592900 19.050700 -5.642500 0.000000 0.000000 0.000000 -7.125000 0.000000 0.000000 -9.276300 35.707100 -2.141400 0.000000 -0.000000 0.000000 1.874700 11.459700 46.675400 -106.075500 -59.000700 -73.875100 -14.822900 7.683600 0.221000 0.000000 0.000000 0.000000 7.125000 0.000000 -0.000000 9.248400 30.140000 3.393900
15.664179 16.664745 24.270742 -177.039548 9.031578 -168.936765 0.000000 0.000000 0.000000 -9.214264 -19.180951 -35.074075 1.891550 8.636410 24.664449 0.552727 15.589503 16.110333 0.267314 -3.325895 -9.187373 0.000000 0.000000 0.000000 23.294167 0.785759 9.244634 -4.243579 -12.464255 37.415275 -0.525351 -26.602772 21.901798 -0.780221 5.637990 -15.737978 1.388596 7.827474 -4.255795 -5.754559 10.741376 -2.424566 -6.050125 5.499087 1.216970 3.338926 -2.457975 -31.796850 4.427235 -13.991555 43.568142 -2.943074 -4.684694 26.143877 0.000000 0.000000 0.000000 37.022780 32.776744 -68.482256 109.452686 -58.520534 76.762804 15.657876 19.023090 -5.635617 0.000000 0.000000 0.000000 -7.125000 0.000000 0.000000 -9.221649 35.703374 -2.129367 0.000000 0.000000 0.000000 2.828248 11.838402 45.641118 -105.824654 -59.031571 -73.659937 -14.858428 7.849054 0.300001 0.000000 0.000000 0.000000 7.125000 0.000000 0.000000 9.228320 30.221200 3.368334
15.659857 16.643190 24.173084 -177.063095 9.010256 -169.040529 0.000000 0.000000 0.000000 -9.568228 -18.873203 -34.871851 1.898201 8.650719 24.708697 0.569753 15.508406 16.215365 0.269927 -3.341990 -9.232347 0.000000 0.000000 0.000000 23.195035 0.733618 8.928269 -4.454058 -12.724210 38.371850 -0.481103 -26.466145 21.563696 -0.800043 5.707080 -15.937356 1.539792 8.034848 -4.076290 -6.078119 11.046253 -2.523931 -6.473050 5.664774 1.145241 3.832753 -2.577550 -31.673601 4.480670 -14.555610 43.526585 -3.162247 -4.794488 25.994855 0.000000 0.000000 0.000000 37.984660 32.145487 -69.268513 109.318672 -58.541468 76.648507 15.722852 18.995480 -5.628734 0.000000 0.000000 0.000000 -7.125000 0.000000 0.000000 -9.166998 35.699648 -2.117335 0.000000 0.000000 0.000000 3.781795 12.217104 44.606836 -105.573807 -59.062441 -73.444774 -14.893957 8.014508 0.379002 0.000000 0.000000 0.000000 7.125000 0.000000 0.000000 9.208240 30.302401 3.342768
15.655536 16.621635 24.075427 -177.086643 8.988933 -169.144294 0.000000 0.000000 0.000000 -9.922192 -18.565454 -34.669626 1.904851 8.665029 24.752946 0.586780 15.427310 16.320398 0.272541 -3.358085 -9.277320 0.000000 0.000000 0.000000 23.095902 0.681477 8.611903 -4.664537 -12.984165 39.328425 -0.436854 -26.329517 21.225594 -0.819864 5.776170 -16.136734 1.690988 8.242222 -3.896785 -6.401678 11.351129 -2.623297 -6.895975 5.830461 1.073511 4.326579 -2.697125 -31.550351 4.534105 -15.119665 43.485027 -3.381421 -4.904281 25.845832 0.000000 0.000000 0.000000 38.946539 31.514231 -70.054769 109.184657 -58.562402 76.534211 15.787827 18.967869 -5.621851 0.000000 0.000000 0.000000 -7.125000 0.000000 0.000000 -9.112347 35.695921 -2.105302 0.000000 0.000000 0.000000 4.735343 12.595806 43.572554 -105.322961 -59.093312 -73.229612 -14.929485 8.179962 0.458003 0.000000 0.000000 0.000000 7.125000 0.000000 0.000000 9.188160 30.383601 3.317202
15.651113 16.599750 23.977615 -177.117518 8.969532 -169.247988 0.000000 0.000000 0.000000 -10.278993 -18.265474 -34.472815 1.914456 8.685513 24.816414 0.604185 15.337161 16.424964 0.276297 -3.380765 -9.340723 0.000000 0.000000 0.000000 22.986777 0.627337 8.297820 -4.877067 -13.241886 40.284611 -0.391381 -26.200178 20.882728 -0.835959 5.832335 -16.298796 1.787210 8.365417 -3.759883 -6.620914 11.535198 -2.680399 -7.182533 5.931623 1.024528 4.692702 -2.755019 -31.469859 4.551265 -15.475729 43.464673 -3.539063 -4.967216 25.746074 0.000000 0.000000 0.000000 39.541673 31.034873 -70.553409 109.024865 -58.587007 76.397866 15.850647 18.961775 -5.589767 0.000000 0.000000 0.000000 -7.125000 0.000000 0.000000 -9.056072 35.666206 -2.098515 0.000000 0.000000 0.000000 5.416802 12.912791 42.811478 -105.015008 -59.129834 -72.965304 -14.967289 8.320889 0.549950 0.000000 0.000000 0.000000 7.125000 0.000000 0.000000 9.167610 30.478099 3.288576
